HIERARCHY
ROOT Hips
{
 OFFSET 0.000000 0.000000 0.000000
 CHANNELS 6 Xposition Yposition Zposition Yrotation Xrotation Zrotation
 JOINT Chest
 {
  OFFSET 0.000000 9.585900 0.002600
  CHANNELS 3 Yrotation Xrotation Zrotation
  JOINT Chest2
  {
   OFFSET 0.000000 9.601200 -0.005300
   CHANNELS 3 Yrotation Xrotation Zrotation
   JOINT Chest3
   {
    OFFSET 0.000000 9.561800 0.000000
    CHANNELS 3 Yrotation Xrotation Zrotation
    JOINT Chest4
    {
     OFFSET 0.000000 9.552100 0.000000
     CHANNELS 3 Yrotation Xrotation Zrotation
     JOINT Neck
     {
      OFFSET 0.000000 14.453000 0.000000
      CHANNELS 3 Yrotation Xrotation Zrotation
      JOINT Head
      {
       OFFSET 0.000000 8.936500 -0.011300
       CHANNELS 3 Yrotation Xrotation Zrotation
       End Site
       {
        OFFSET 0.000000 17.073600 -0.006000
       }
      }
     }
     JOINT RightCollar
     {
      OFFSET -2.921100 9.558500 0.000000
      CHANNELS 3 Yrotation Xrotation Zrotation
      JOINT RightShoulder
      {
       OFFSET -13.519700 0.000000 0.000000
       CHANNELS 3 Yrotation Xrotation Zrotation
       JOINT RightElbow
       {
        OFFSET 0.000000 -29.696600 0.000000
        CHANNELS 3 Yrotation Xrotation Zrotation
        JOINT RightWrist
        {
         OFFSET 0.000000 -24.004700 0.000000
         CHANNELS 3 Yrotation Xrotation Zrotation
         End Site
         {
          OFFSET 0.000000 -17.728500 0.000000
         }
        }
       }
      }
     }
     JOINT LeftCollar
     {
      OFFSET 2.921100 9.558500 0.000000
      CHANNELS 3 Yrotation Xrotation Zrotation
      JOINT LeftShoulder
      {
       OFFSET 13.519700 0.000000 0.000000
       CHANNELS 3 Yrotation Xrotation Zrotation
       JOINT LeftElbow
       {
        OFFSET 0.000000 -29.696600 0.000000
        CHANNELS 3 Yrotation Xrotation Zrotation
        JOINT LeftWrist
        {
         OFFSET 0.000000 -24.004700 0.000000
         CHANNELS 3 Yrotation Xrotation Zrotation
         End Site
         {
          OFFSET 0.000000 -17.728500 0.000000
         }
        }
       }
      }
     }
    }
   }
  }
 }
 JOINT RightHip
 {
  OFFSET -7.771700 -0.012900 -0.001300
  CHANNELS 3 Yrotation Xrotation Zrotation
  JOINT RightKnee
  {
   OFFSET 0.000000 -40.869800 0.001200
   CHANNELS 3 Yrotation Xrotation Zrotation
   JOINT RightAnkle
   {
    OFFSET 0.000000 -39.717900 0.002100
    CHANNELS 3 Yrotation Xrotation Zrotation
    JOINT RightToe
    {
     OFFSET 0.000000 -4.965400 11.033500
     CHANNELS 3 Yrotation Xrotation Zrotation
     End Site
     {
      OFFSET 0.000000 -1.423100 5.872300
     }
    }
   }
  }
 }
 JOINT LeftHip
 {
  OFFSET 7.771700 -0.012900 -0.001300
  CHANNELS 3 Yrotation Xrotation Zrotation
  JOINT LeftKnee
  {
   OFFSET 0.000000 -40.869800 0.001200
   CHANNELS 3 Yrotation Xrotation Zrotation
   JOINT LeftAnkle
   {
    OFFSET 0.000000 -39.717900 0.002100
    CHANNELS 3 Yrotation Xrotation Zrotation
    JOINT LeftToe
    {
     OFFSET 0.000000 -4.965400 11.033500
     CHANNELS 3 Yrotation Xrotation Zrotation
     End Site
     {
      OFFSET 0.000000 -1.423100 5.872300
     }
    }
   }
  }
 }
}
MOTION
Frames: 12
Frame Time: 0.008333
-70.841068 46.660796 -4.688978 171.623430 -32.059878 -2.405960 -0.188253 18.616080 1.593669 -0.018738 2.170891 0.213444 -0.070544 3.568881 0.332656 -0.164799 16.230074 1.506715 1.371528 16.330714 -2.038317 3.230415 -5.411984 -4.282240 0.991464 1.185710 -2.214682 5.978931 -8.460540 -17.508572 -44.848666 -56.271197 93.707498 0.054218 8.436668 -19.843600 0.418990 -0.219166 3.028052 -6.354963 -3.747680 12.079979 101.620535 -83.794913 -135.163616 -6.622287 13.313201 3.611625 -7.006556 -54.632424 -2.216510 -158.092600 81.107504 -147.362504 -8.667976 -12.863933 -8.301194 -0.121601 -0.145546 0.032025 -1.226470 -56.824579 13.477027 -127.685680 81.899209 -130.565764 8.247644 -8.802321 4.616425 0.247899 0.145316 0.124552
-70.840119 46.660367 -4.687217 171.656342 -32.054192 -2.412766 -0.194954 18.621450 1.601332 -0.027920 2.166765 0.209153 -0.051594 3.578231 0.340708 -0.193812 16.218530 1.499153 1.414860 16.357850 -2.009385 3.257296 -5.375594 -4.225328 1.020478 1.191303 -2.208424 5.997506 -8.485949 -17.504576 -44.843462 -56.272282 93.714485 0.068653 8.452485 -19.824202 0.468374 -0.215317 3.074244 -6.307248 -3.710226 12.049014 101.754735 -83.775824 -135.306473 -6.649042 13.279555 3.569531 -6.976072 -54.640507 -2.234174 -157.971102 81.092561 -147.254330 -8.665567 -12.862822 -8.293474 -0.137691 -0.142517 0.042511 -1.270397 -56.821824 13.522498 -127.439064 81.887537 -130.352510 8.206555 -8.793377 4.625859 0.278173 0.151051 0.134426
-70.846303 46.659548 -4.685797 171.712208 -32.043206 -2.390534 -0.224377 18.623951 1.571980 -0.016701 2.173774 0.213392 -0.059506 3.575845 0.338657 -0.195408 16.220509 1.503744 1.430543 16.365659 -1.987770 3.235417 -5.378577 -4.211519 0.994492 1.174265 -2.211411 6.111570 -8.543567 -17.475726 -44.797126 -56.253439 93.584379 0.096858 8.469784 -19.780636 0.446658 -0.234440 3.079405 -6.219993 -3.658532 12.050684 101.841859 -83.757073 -135.400836 -6.603277 13.272108 3.643739 -6.931105 -54.659276 -2.311690 -157.953948 81.080061 -147.276060 -8.659999 -12.871835 -8.252856 -0.171341 -0.129701 0.044083 -1.246701 -56.830617 13.447567 -127.280071 81.900182 -130.220287 8.220357 -8.762843 4.644575 0.255623 0.140267 0.136160
-70.847698 46.659812 -4.684456 171.729710 -32.041047 -2.379300 -0.206931 18.637503 1.576765 -0.005250 2.179201 0.217736 -0.068079 3.572529 0.336271 -0.141480 16.241272 1.527995 1.392008 16.348712 -1.973428 3.212382 -5.381244 -4.195481 0.952384 1.142814 -2.209430 6.178730 -8.615037 -17.454166 -44.754787 -56.251781 93.506665 0.103769 8.500835 -19.781786 0.371177 -0.275385 3.080280 -6.137135 -3.607285 12.051059 101.867404 -83.738949 -135.430032 -6.574308 13.250810 3.694819 -6.895710 -54.665852 -2.345849 -157.934478 81.075045 -147.272339 -8.659228 -12.868113 -8.243890 -0.187092 -0.130752 0.037182 -1.237831 -56.830888 13.425640 -127.183126 81.903187 -130.136974 8.237180 -8.748433 4.643706 0.248564 0.133527 0.138254
-70.848841 46.659767 -4.681998 171.748672 -32.032674 -2.375248 -0.144041 18.661800 1.616821 -0.042807 2.162757 0.204479 -0.066609 3.573639 0.337111 -0.134110 16.243307 1.532650 1.398847 16.348319 -1.953775 3.220674 -5.373440 -4.156658 0.951146 1.131502 -2.203092 6.214955 -8.677752 -17.433350 -44.706607 -56.258510 93.454829 0.115245 8.528382 -19.783814 0.387150 -0.290131 3.106947 -6.154133 -3.595105 12.029130 101.865258 -83.729676 -135.428971 -6.528141 13.249257 3.772903 -6.852852 -54.679451 -2.385490 -157.892063 81.066383 -147.219698 -8.678788 -12.859900 -8.248102 -0.156854 -0.141951 0.013052 -1.239718 -56.836879 13.417018 -127.091728 81.900479 -130.052246 8.220537 -8.744820 4.641350 0.245404 0.136778 0.135302
-70.852475 46.659121 -4.678492 171.783973 -32.015069 -2.369988 -0.137973 18.661242 1.620769 -0.041595 2.163690 0.204952 -0.064565 3.575072 0.337904 -0.140632 16.240170 1.532734 1.418259 16.351169 -1.935350 3.225981 -5.374349 -4.119868 0.967960 1.118045 -2.198961 6.198907 -8.706063 -17.421880 -44.687108 -56.288156 93.481112 0.117943 8.558218 -19.791721 0.406538 -0.298266 3.119369 -6.166047 -3.581630 12.023183 101.858627 -83.721442 -135.424387 -6.478081 13.244089 3.861572 -6.764890 -54.707467 -2.460713 -157.834265 81.050607 -147.147336 -8.712151 -12.845866 -8.216390 -0.134914 -0.152634 0.001485 -1.231905 -56.854156 13.382293 -127.006207 81.911658 -129.974205 8.209366 -8.727905 4.642273 0.244036 0.135382 0.141547
-70.857695 46.657922 -4.673840 171.822158 -31.989304 -2.361257 -0.146866 18.648472 1.613088 -0.028730 2.168784 0.209019 -0.074763 3.571950 0.335099 -0.164860 16.230867 1.527076 1.450804 16.359728 -1.922020 3.240100 -5.375254 -4.086058 1.067423 1.115112 -2.203091 6.188324 -8.763847 -17.372721 -44.624936 -56.305733 93.394844 0.121397 8.591106 -19.799781 0.445596 -0.294523 3.128884 -6.129523 -3.546102 12.027625 101.464849 -83.705313 -134.966034 -6.494334 13.174068 3.852832 -6.716662 -54.739865 -2.523168 -157.790389 81.043907 -147.112002 -8.704783 -12.834783 -8.201126 -0.151086 -0.153095 0.006593 -1.208943 -56.881913 13.329575 -126.931090 81.933146 -129.909903 8.214387 -8.702234 4.654578 0.241417 0.128688 0.139644
-70.865775 46.657182 -4.670059 171.862253 -31.968075 -2.338557 -0.184736 18.632352 1.574722 -0.016543 2.173358 0.212885 -0.045861 3.583224 0.342765 -0.155080 16.233891 1.532181 1.404386 16.339295 -1.916962 3.330761 -5.379437 -4.019730 1.076004 1.087950 -2.208323 6.227569 -8.812192 -17.320379 -44.554983 -56.332116 93.294535 0.115482 8.614825 -19.807099 0.438057 -0.307167 3.140345 -6.043331 -3.484166 12.042462 101.644959 -83.667630 -135.165537 -6.484196 13.129216 3.883200 -6.643732 -54.770510 -2.610006 -157.836154 81.051216 -147.174612 -8.730250 -12.820315 -8.169162 -0.164965 -0.151222 0.008394 -1.118190 -56.914020 13.213768 -126.920721 81.939665 -129.874142 8.150249 -8.679007 4.664000 0.263088 0.120708 0.140263
-70.869637 46.657660 -4.666951 171.882421 -31.958715 -2.331864 -0.160721 18.637845 1.586041 -0.037977 2.166485 0.205914 -0.014988 3.594886 0.350692 -0.078210 16.257446 1.551303 1.393903 16.321010 -1.885248 3.262707 -5.413793 -3.982641 0.967030 1.039169 -2.204146 6.306411 -8.844941 -17.282134 -44.517834 -56.357383 93.233766 0.113645 8.642002 -19.807314 0.369829 -0.338845 3.156205 -5.999483 -3.459583 12.053389 101.655590 -83.643209 -135.184851 -6.495582 13.088226 3.865967 -6.584222 -54.781540 -2.663085 -157.794271 81.050692 -147.117181 -8.766485 -12.817308 -8.170950 -0.139478 -0.152155 -0.008432 -1.069497 -56.929524 13.156214 -126.922651 81.950231 -129.862799 8.132433 -8.664402 4.677584 0.217924 0.114131 0.123953
-70.870950 46.658715 -4.664019 171.894582 -31.954949 -2.337867 -0.118123 18.650000 1.617620 -0.035400 2.167785 0.206549 -0.054296 3.581608 0.340761 0.014971 16.283450 1.570517 1.379208 16.305840 -1.862262 3.216592 -5.441189 -3.943206 0.938072 0.997856 -2.204628 6.336532 -8.862293 -17.237909 -44.492652 -56.384356 93.183069 0.106108 8.665352 -19.815698 0.331211 -0.356087 3.172537 -5.976195 -3.452358 12.060045 101.584965 -83.628402 -135.109248 -6.465380 13.071492 3.941553 -6.541129 -54.784721 -2.689247 -157.764777 81.052318 -147.073379 -8.766975 -12.803151 -8.206419 -0.134100 -0.156834 0.021311 -1.025945 -56.941035 13.118516 -126.915724 81.952558 -129.831974 8.132138 -8.656561 4.681299 0.214713 0.111493 0.120794
-70.873515 46.660920 -4.663244 171.899653 -31.965514 -2.333031 -0.022750 18.685632 1.662989 -0.041479 2.167643 0.205471 -0.085732 3.572805 0.336192 0.040681 16.288926 1.578117 1.350341 16.289981 -1.845901 3.199988 -5.463076 -3.905338 0.994049 0.959102 -2.218643 6.304221 -8.868336 -17.183727 -44.480272 -56.404818 93.149229 0.096756 8.683958 -19.835477 0.315104 -0.369728 3.189640 -5.951151 -3.446440 12.064728 101.550892 -83.613035 -135.071785 -6.438395 13.061056 4.003948 -6.506828 -54.776974 -2.706077 -157.852291 81.065905 -147.185778 -8.789451 -12.804437 -8.181938 -0.142188 -0.140486 0.014789 -0.994221 -56.933021 13.089006 -126.890849 81.959092 -129.802021 8.171640 -8.634799 4.692596 0.182158 0.092395 0.106009
-70.878443 46.661540 -4.660603 171.914599 -31.959741 -2.323497 -0.008714 18.689079 1.661028 -0.015037 2.176659 0.211661 -0.036323 3.590537 0.344967 -0.027293 16.263892 1.572998 1.373282 16.290112 -1.830345 3.163663 -5.484100 -3.875127 1.062559 0.937717 -2.230201 6.306295 -8.873932 -17.143186 -44.461733 -56.434241 93.184994 0.061973 8.687668 -19.930260 0.344652 -0.372228 3.204201 -5.922486 -3.440774 12.065502 101.555561 -83.597345 -135.077009 -6.431940 13.048631 4.022654 -6.473427 -54.784859 -2.740501 -157.866598 81.070791 -147.210237 -8.801268 -12.799406 -8.171194 -0.147353 -0.137032 0.008139 -0.956847 -56.941774 13.044077 -126.854708 81.970736 -129.764640 8.176803 -8.619698 4.699895 0.176159 0.086535 0.104022
